<svg width="92" height="20" viewBox="0 0 92 20" fill="none" xmlns="http://www.w3.org/2000/svg">
<path fill-rule="evenodd" clip-rule="evenodd" d="M5.71442 1.6665C4.77425 1.6665 3.87262 2.03998 3.20784 2.70477L0 5.91258V7.38092C0 8.41829 0.4456 9.35158 1.15584 9.99983C0.4456 10.6481 0 11.5814 0 12.6188V14.0871L3.20784 17.2949C3.87262 17.9597 4.77425 18.3332 5.71442 18.3332C6.75179 18.3332 7.68508 17.8876 8.33333 17.1773C8.98158 17.8876 9.91488 18.3332 10.9522 18.3332C11.8924 18.3332 12.794 17.9597 13.4588 17.2949L16.6667 14.0871V12.6188C16.6667 11.5814 16.2211 10.6481 15.5108 9.99983C16.2211 9.35158 16.6667 8.41829 16.6667 7.38092V5.91258L13.4588 2.70477C12.794 2.03998 11.8924 1.6665 10.9522 1.6665C9.91488 1.6665 8.98158 2.1121 8.33333 2.82234C7.68508 2.1121 6.75179 1.6665 5.71442 1.6665ZM10.7328 9.99983C10.6929 9.96338 10.6537 9.92592 10.6152 9.8875L8.33333 7.60558L6.05142 9.8875C6.013 9.92592 5.97379 9.96338 5.93383 9.99983C5.97379 10.0363 6.013 10.0738 6.05142 10.1122L8.33333 12.3941L10.6152 10.1122C10.6537 10.0738 10.6929 10.0363 10.7328 9.99983ZM9.25925 14.0871V14.7883C9.25925 15.7233 10.0173 16.4813 10.9522 16.4813C11.4012 16.4813 11.8319 16.303 12.1494 15.9855L14.8148 13.32V12.6188C14.8148 11.6838 14.0568 10.9258 13.1218 10.9258C12.6728 10.9258 12.2422 11.1041 11.9247 11.4216L9.25925 14.0871ZM7.40742 14.0871L4.74196 11.4216C4.42446 11.1041 3.99385 10.9258 3.54484 10.9258C2.60983 10.9258 1.85185 11.6838 1.85185 12.6188V13.32L4.51729 15.9855C4.83479 16.303 5.26542 16.4813 5.71442 16.4813C6.64942 16.4813 7.40742 15.7233 7.40742 14.7883V14.0871ZM7.40742 5.21135V5.91258L4.74196 8.57804C4.42446 8.89554 3.99385 9.07392 3.54484 9.07392C2.60983 9.07392 1.85185 8.31592 1.85185 7.38092V6.67967L4.51729 4.01422C4.83479 3.69672 5.26542 3.51836 5.71442 3.51836C6.64942 3.51836 7.40742 4.27633 7.40742 5.21135ZM11.9247 8.57804L9.25925 5.91258V5.21135C9.25925 4.27633 10.0173 3.51836 10.9522 3.51836C11.4012 3.51836 11.8319 3.69672 12.1494 4.01422L14.8148 6.67967V7.38092C14.8148 8.31592 14.0568 9.07392 13.1218 9.07392C12.6728 9.07392 12.2422 8.89554 11.9247 8.57804Z" fill="#BEF264"/>
<path d="M31.4271 6.43734V7.86442H28.4479V9.40609H30.6771V10.7915H28.4479V13.7498H26.6667V6.43734H31.4271Z" fill="#1D1F1E"/>
<path d="M33.9362 6.0415V13.7498H32.1549V6.0415H33.9362Z" fill="#1D1F1E"/>
<path d="M37.6645 13.8332C37.0951 13.8332 36.5812 13.7116 36.1229 13.4686C35.6715 13.2255 35.3139 12.8783 35.05 12.4269C34.793 11.9755 34.6645 11.4478 34.6645 10.8436C34.6645 10.2464 34.7965 9.72206 35.0604 9.27067C35.3243 8.81234 35.6854 8.46164 36.1437 8.21859C36.602 7.97553 37.1159 7.854 37.6854 7.854C38.2548 7.854 38.7687 7.97553 39.227 8.21859C39.6854 8.46164 40.0465 8.81234 40.3104 9.27067C40.5743 9.72206 40.7062 10.2464 40.7062 10.8436C40.7062 11.4408 40.5708 11.9686 40.3 12.4269C40.0361 12.8783 39.6715 13.2255 39.2062 13.4686C38.7479 13.7116 38.234 13.8332 37.6645 13.8332ZM37.6645 12.2915C38.0048 12.2915 38.293 12.1665 38.5291 11.9165C38.7722 11.6665 38.8937 11.3089 38.8937 10.8436C38.8937 10.3783 38.7757 10.0207 38.5395 9.77067C38.3104 9.52067 38.0257 9.39567 37.6854 9.39567C37.3382 9.39567 37.05 9.52067 36.8208 9.77067C36.5916 10.0137 36.477 10.3714 36.477 10.8436C36.477 11.3089 36.5882 11.6665 36.8104 11.9165C37.0395 12.1665 37.3243 12.2915 37.6645 12.2915Z" fill="#1D1F1E"/>
<path d="M43.2241 8.90609C43.4325 8.58664 43.6929 8.33664 44.0054 8.15609C44.3179 7.96859 44.6651 7.87484 45.047 7.87484V9.76025H44.5575C44.113 9.76025 43.7797 9.85748 43.5575 10.0519C43.3352 10.2394 43.2241 10.5728 43.2241 11.0519V13.7498H41.4429V7.93734H43.2241V8.90609Z" fill="#1D1F1E"/>
<path d="M45.3359 10.8332C45.3359 10.2359 45.447 9.71164 45.6693 9.26025C45.8984 8.80886 46.2075 8.46164 46.5964 8.21859C46.9852 7.97553 47.4193 7.854 47.8984 7.854C48.3082 7.854 48.6658 7.93734 48.9714 8.104C49.2839 8.27067 49.5234 8.48942 49.6901 8.76025V7.93734H51.4714V13.7498H49.6901V12.9269C49.5165 13.1978 49.2734 13.4165 48.9609 13.5832C48.6554 13.7498 48.2977 13.8332 47.888 13.8332C47.4158 13.8332 46.9852 13.7116 46.5964 13.4686C46.2075 13.2186 45.8984 12.8679 45.6693 12.4165C45.447 11.9582 45.3359 11.4304 45.3359 10.8332ZM49.6901 10.8436C49.6901 10.3991 49.5651 10.0484 49.3151 9.7915C49.072 9.53456 48.7734 9.40609 48.4193 9.40609C48.0651 9.40609 47.763 9.53456 47.513 9.7915C47.27 10.0415 47.1484 10.3887 47.1484 10.8332C47.1484 11.2776 47.27 11.6318 47.513 11.8957C47.763 12.1526 48.0651 12.2811 48.4193 12.2811C48.7734 12.2811 49.072 12.1526 49.3151 11.8957C49.5651 11.6387 49.6901 11.288 49.6901 10.8436Z" fill="#1D1F1E"/>
<path d="M57.1454 13.7498L56.51 12.8748C56.3086 13.1596 56.0378 13.3887 55.6975 13.5623C55.3642 13.7359 54.9892 13.8228 54.5725 13.8228C54.1003 13.8228 53.6836 13.7221 53.3225 13.5207C52.9683 13.3193 52.694 13.0484 52.4996 12.7082C52.3121 12.3609 52.2183 11.9755 52.2183 11.5519C52.2183 10.9825 52.3781 10.4998 52.6975 10.104C53.017 9.70817 53.4197 9.46859 53.9058 9.38525C53.7322 9.14914 53.6038 8.91998 53.5204 8.69775C53.4371 8.46859 53.3954 8.229 53.3954 7.979C53.3954 7.6665 53.4788 7.37136 53.6454 7.09359C53.8121 6.81581 54.0551 6.59359 54.3746 6.42692C54.701 6.26025 55.0899 6.17692 55.5413 6.17692C56.1663 6.17692 56.6593 6.31928 57.0204 6.604C57.3885 6.88873 57.6142 7.24636 57.6975 7.67692C57.7392 7.86442 57.76 8.05539 57.76 8.24984C57.76 8.40261 57.7531 8.5172 57.7392 8.59359H56.0517C56.0795 8.46859 56.0864 8.32623 56.0725 8.1665C56.0656 8.01373 56.017 7.8922 55.9267 7.80192C55.8364 7.7047 55.7149 7.65609 55.5621 7.65609C55.4232 7.65609 55.3086 7.70123 55.2183 7.7915C55.135 7.88178 55.0933 7.99289 55.0933 8.12484C55.0933 8.22206 55.1142 8.32275 55.1558 8.42692C55.2045 8.52414 55.2843 8.64914 55.3954 8.80192L59.0308 13.7498H57.1454ZM54.5829 12.354C54.819 12.354 55.017 12.2741 55.1767 12.1144C55.3364 11.9547 55.4163 11.7533 55.4163 11.5103C55.4163 11.2741 55.3364 11.0797 55.1767 10.9269C55.017 10.7672 54.819 10.6873 54.5829 10.6873C54.3468 10.6873 54.1489 10.7672 53.9892 10.9269C53.8364 11.0797 53.76 11.2741 53.76 11.5103C53.76 11.7533 53.8364 11.9547 53.9892 12.1144C54.1489 12.2741 54.3468 12.354 54.5829 12.354Z" fill="#1D1F1E"/>
<path d="M64.2957 6.43734V7.86442H61.3166V9.40609H63.5457V10.7915H61.3166V13.7498H59.5353V6.43734H64.2957Z" fill="#1D1F1E"/>
<path d="M64.6694 10.8332C64.6694 10.2359 64.7805 9.71164 65.0028 9.26025C65.2319 8.80886 65.541 8.46164 65.9299 8.21859C66.3187 7.97553 66.7528 7.854 67.2319 7.854C67.6417 7.854 67.9993 7.93734 68.3048 8.104C68.6173 8.27067 68.8569 8.48942 69.0236 8.76025V7.93734H70.8048V13.7498H69.0236V12.9269C68.85 13.1978 68.6069 13.4165 68.2944 13.5832C67.9889 13.7498 67.6312 13.8332 67.2215 13.8332C66.7493 13.8332 66.3187 13.7116 65.9299 13.4686C65.541 13.2186 65.2319 12.8679 65.0028 12.4165C64.7805 11.9582 64.6694 11.4304 64.6694 10.8332ZM69.0236 10.8436C69.0236 10.3991 68.8986 10.0484 68.6486 9.7915C68.4055 9.53456 68.1069 9.40609 67.7528 9.40609C67.3986 9.40609 67.0965 9.53456 66.8465 9.7915C66.6035 10.0415 66.4819 10.3887 66.4819 10.8332C66.4819 11.2776 66.6035 11.6318 66.8465 11.8957C67.0965 12.1526 67.3986 12.2811 67.7528 12.2811C68.1069 12.2811 68.4055 12.1526 68.6486 11.8957C68.8986 11.6387 69.0236 11.288 69.0236 10.8436Z" fill="#1D1F1E"/>
<path d="M77.6248 7.93734V13.7498H75.8435V12.9582C75.6629 13.2151 75.4164 13.4234 75.1039 13.5832C74.7984 13.7359 74.4581 13.8123 74.0831 13.8123C73.6386 13.8123 73.2463 13.7151 72.906 13.5207C72.5657 13.3193 72.3018 13.0311 72.1143 12.6561C71.9268 12.2811 71.8331 11.8401 71.8331 11.3332V7.93734H73.6039V11.0936C73.6039 11.4825 73.7046 11.7846 73.906 11.9998C74.1074 12.2151 74.3782 12.3228 74.7185 12.3228C75.0657 12.3228 75.34 12.2151 75.5414 11.9998C75.7428 11.7846 75.8435 11.4825 75.8435 11.0936V7.93734H77.6248Z" fill="#1D1F1E"/>
<path d="M82.2375 7.87484C82.9181 7.87484 83.4598 8.09706 83.8625 8.5415C84.2723 8.979 84.4771 9.58317 84.4771 10.354V13.7498H82.7063V10.5936C82.7063 10.2047 82.6056 9.90261 82.4042 9.68734C82.2028 9.47206 81.932 9.36442 81.5917 9.36442C81.2514 9.36442 80.9806 9.47206 80.7792 9.68734C80.5778 9.90261 80.4771 10.2047 80.4771 10.5936V13.7498H78.6959V7.93734H80.4771V8.70817C80.6577 8.45123 80.9007 8.24984 81.2063 8.104C81.5119 7.95123 81.8556 7.87484 82.2375 7.87484Z" fill="#1D1F1E"/>
<path d="M85.1524 10.8332C85.1524 10.2359 85.2635 9.71164 85.4858 9.26025C85.7149 8.80886 86.024 8.46164 86.4128 8.21859C86.8017 7.97553 87.2358 7.854 87.7149 7.854C88.1246 7.854 88.4823 7.93734 88.7878 8.104C89.1003 8.27067 89.3399 8.48942 89.5066 8.76025V7.93734H91.2878V13.7498H89.5066V12.9269C89.333 13.1978 89.0899 13.4165 88.7774 13.5832C88.4719 13.7498 88.1142 13.8332 87.7045 13.8332C87.2323 13.8332 86.8017 13.7116 86.4128 13.4686C86.024 13.2186 85.7149 12.8679 85.4858 12.4165C85.2635 11.9582 85.1524 11.4304 85.1524 10.8332ZM89.5066 10.8436C89.5066 10.3991 89.3816 10.0484 89.1316 9.7915C88.8885 9.53456 88.5899 9.40609 88.2358 9.40609C87.8816 9.40609 87.5795 9.53456 87.3295 9.7915C87.0865 10.0415 86.9649 10.3887 86.9649 10.8332C86.9649 11.2776 87.0865 11.6318 87.3295 11.8957C87.5795 12.1526 87.8816 12.2811 88.2358 12.2811C88.5899 12.2811 88.8885 12.1526 89.1316 11.8957C89.3816 11.6387 89.5066 11.288 89.5066 10.8436Z" fill="#1D1F1E"/>
</svg>
